<svg width="1440" height="1130" viewBox="0 0 1440 1130" fill="none" xmlns="http://www.w3.org/2000/svg">
<g filter="url(#filter0_d_0_9)">
<rect x="70" y="-3" width="150" height="1145" rx="10" fill="#FFE2E2" fill-opacity="0.2"/>
<rect x="1220" width="150" height="1130" rx="10" fill="#FFE2E2" fill-opacity="0.2"/>
<path d="M70 0.5V1207.5" stroke="#DEE3F0"/>
<path d="M220 0.5V1207.5" stroke="#DEE3F0"/>
<path d="M270 0.5V1207.5" stroke="#DEE3F0"/>
<path d="M420 0.5V1207.5" stroke="#DEE3F0"/>
<path d="M470 0.5V1207.5" stroke="#DEE3F0"/>
<path d="M620 0.5V1207.5" stroke="#DEE3F0"/>
<path d="M670 0.5V1207.5" stroke="#DEE3F0"/>
<path d="M820 0.5V1207.5" stroke="#DEE3F0"/>
<path d="M870 0.5V1207.5" stroke="#DEE3F0"/>
<path d="M1020 0.5V1207.5" stroke="#DEE3F0"/>
<path d="M1070 0.5V1207.5" stroke="#DEE3F0"/>
<path d="M1370 0.5V1130.5" stroke="#DEE3F0"/>
<path d="M1220 0.5V1130.5" stroke="#DEE3F0"/>
<path d="M0 40H1440" stroke="#DEE3F0"/>
<path d="M0 100H1440" stroke="#DEE3F0"/>
</g>
<defs>
<filter id="filter0_d_0_9" x="-4" y="-3" width="1448" height="1218.5" filterUnits="userSpaceOnUse" color-interpolation-filters="sRGB">
<feFlood flood-opacity="0" result="BackgroundImageFix"/>
<feColorMatrix in="SourceAlpha" type="matrix" values="0 0 0 0 0 0 0 0 0 0 0 0 0 0 0 0 0 0 127 0" result="hardAlpha"/>
<feOffset dy="4"/>
<feGaussianBlur stdDeviation="2"/>
<feComposite in2="hardAlpha" operator="out"/>
<feColorMatrix type="matrix" values="0 0 0 0 0 0 0 0 0 0 0 0 0 0 0 0 0 0 0.25 0"/>
<feBlend mode="normal" in2="BackgroundImageFix" result="effect1_dropShadow_0_9"/>
<feBlend mode="normal" in="SourceGraphic" in2="effect1_dropShadow_0_9" result="shape"/>
</filter>
</defs>
</svg>
